# xmcd
#
# Track frame offsets:
#	150
#	30005
#	45684
#	99760
#	121320
#	151175
#
# Disc length: 2224 seconds
#
# Revision: 1
# Processed by: cddbd v1.5.1PL0 Copyright (c) Steve Scherf et al.
# Submitted via: CDex 1.50Beta5
#
DISCID=3308ae06
DTITLE=Love Solfege - Zephyranthus
DYEAR=2003
DGENRE=Pop
TTITLE0=Zephyranthus
TTITLE1=Calm Morning
TTITLE2=Lovege Radio
TTITLE3=秋色に染まる道
TTITLE4=Zephyranthus (Off Vocal)
TTITLE5=Calm Morning (Oboe Tutorial)
EXTD=
EXTT0=
EXTT1=
EXTT2=
EXTT3=
EXTT4=
EXTT5=
PLAYORDER=
